<svg width="24" height="24" viewBox="0 0 24 24" fill="none" xmlns="http://www.w3.org/2000/svg"><path d="M16.746 0H7.25C3.248 0 0 3.241 0 7.24v9.52C0 20.764 3.248 24 7.25 24h9.496C20.75 24 24 20.764 24 16.76V7.24C24 3.241 20.75 0 16.746 0zm4.865 16.797a4.804 4.804 0 01-4.804 4.802H7.193a4.804 4.804 0 01-4.806-4.802V7.203a4.805 4.805 0 014.806-4.798h9.614a4.804 4.804 0 014.804 4.798v9.594z" fill="#fff"/><path d="M18.284 7.136a1.357 1.357 0 100-2.714 1.357 1.357 0 000 2.714zM12 5.895A6.11 6.11 0 005.884 12 6.11 6.11 0 0012 18.109 6.112 6.112 0 0018.116 12C18.115 8.629 15.375 5.895 12 5.895zm0 9.81a3.702 3.702 0 110-7.404 3.698 3.698 0 013.707 3.7A3.705 3.705 0 0112 15.705z" fill="#fff"/></svg>