<svg width="32" height="30" viewBox="0 0 32 30" fill="none" xmlns="http://www.w3.org/2000/svg">
<path fill-rule="evenodd" clip-rule="evenodd" d="M12.6605 24.9237L12.6173 24.8405L0 17.1429L4.49383 13.9806L8.20988 0L12.7037 3.16228L27.6975 2.24688L25.9691 7.32316L31.5 20.7628H25.9259L25.8827 20.8044L14.3457 30L12.6605 24.9237ZM12.6604 24.7963V24.8795L21.3888 20.7186L23.0308 20.7602H25.8827H25.9259L25.753 19.512L24.5431 11.4814L25.9691 7.36216H25.9259L25.7962 7.32056L16.3765 5.73942L12.7036 3.15967V3.20128L11.5802 5.1985L8.16661 11.4398L4.66661 13.8948L4.49377 14.0196L11.2777 20.7186L12.6604 24.7963Z" fill="#54626F"/>
</svg>
