<svg width="105" height="36" viewBox="0 0 105 36" fill="none" xmlns="http://www.w3.org/2000/svg">
<g clip-path="url(#clip0)">
<path d="M105 36L105 0L7.62939e-06 -4.5897e-06L6.05578e-06 36L105 36Z" fill="#54626F"/>
<path d="M45.7444 12.1328C44.1922 12.1328 42.4283 12.8731 41.3523 14.3536L41.3523 14.3499L41.3523 12.365L37.6517 12.365L37.6517 26.2193L41.3488 26.2193L41.3488 18.3378C41.3488 16.919 42.4177 15.4095 44.3968 15.4095C45.9278 15.4095 47.5118 16.5054 47.5118 18.3378L47.5118 26.2229L51.2124 26.2229L51.2124 17.6302C51.2159 14.4443 49.0005 12.1328 45.7444 12.1328Z" fill="white"/>
<path d="M77.5047 12.3672L74.1604 21.8053L70.8161 12.3672L66.5934 12.3672L72.1355 26.2178L76.1853 26.2178L81.731 12.3672L77.5047 12.3672Z" fill="white"/>
<path d="M33.7182 21.9592C32.1624 23.1422 31.2699 23.4288 29.8518 23.4288C28.5747 23.4288 27.5728 23.0224 26.8673 22.304L36.3252 18.2689C36.1171 16.7666 35.5632 15.424 34.7095 14.4007C33.4677 12.9166 31.6262 12.1328 29.3896 12.1328C25.3221 12.1328 22.2565 15.2208 22.2565 19.2958C22.2565 23.476 25.3292 26.4588 29.7989 26.4588C32.3036 26.4588 34.8612 25.2396 36.0606 23.8135L33.7182 21.9592ZM26.6098 16.538C27.2412 15.6671 28.2431 15.1591 29.4567 15.1591C30.7902 15.1591 31.7991 15.9429 32.3247 17.0968L25.8619 19.8546C25.682 18.4394 26.0347 17.3327 26.6098 16.538Z" fill="white"/>
<path d="M21.9001 22.7264L13.4935 22.7264L13.4935 8.22266L9.74702 8.22266L9.74702 26.2208L21.9001 26.2208L21.9001 22.7264Z" fill="white"/>
<path d="M88.3701 26.4552C84.3238 26.4552 81.1559 23.3563 81.1559 19.2958C81.1559 15.2789 84.3485 12.1328 88.4195 12.1328C92.4659 12.1328 95.6338 15.2317 95.6338 19.2958C95.6338 23.3091 92.4447 26.4552 88.3701 26.4552ZM88.3701 15.3914C86.3029 15.3914 84.8036 17.0025 84.8036 19.2922C84.8036 21.4803 86.3911 23.193 88.4195 23.193C90.4868 23.193 91.9861 21.5383 91.9861 19.2922C91.9861 17.1041 90.3986 15.3914 88.3701 15.3914Z" fill="white"/>
<path d="M59.8941 26.4552C55.8477 26.4552 52.6798 23.3563 52.6798 19.2958C52.6798 15.2789 55.8724 12.1328 59.9435 12.1328C63.9898 12.1328 67.1577 15.2317 67.1577 19.2958C67.1577 23.3091 63.9651 26.4552 59.8941 26.4552ZM59.8941 15.3914C57.8268 15.3914 56.3275 17.0025 56.3275 19.2922C56.3275 21.4803 57.915 23.193 59.9435 23.193C62.0107 23.193 63.51 21.5383 63.51 19.2922C63.5065 17.1041 61.919 15.3914 59.8941 15.3914Z" fill="white"/>
</g>
<defs>
<clipPath id="clip0">
<rect x="105" width="36" height="105" transform="rotate(90 105 0)" fill="white"/>
</clipPath>
</defs>
</svg>
