<svg width="67" height="200" viewBox="0 0 67 200" fill="none" xmlns="http://www.w3.org/2000/svg">
<g clip-path="url(#clip0)">
<path d="M66.6644 0H0V200H66.6644V0Z" fill="#E32726"/>
<path d="M22.4702 112.866C22.4702 115.823 23.841 119.183 26.5826 121.232H26.5758H22.9003V128.281H48.5554V121.239H33.9606C31.3333 121.239 28.5379 119.203 28.5379 115.433C28.5379 112.517 30.5672 109.5 33.9606 109.5H48.5621V102.451H32.6503C26.7506 102.444 22.4702 106.664 22.4702 112.866Z" fill="white"/>
<path d="M22.9004 52.3723L40.3779 58.7424L22.9004 65.1125V73.1557L48.5488 62.5994V54.8854L22.9004 44.3223V52.3723Z" fill="white"/>
<path d="M40.6667 135.774C42.8573 138.738 43.3881 140.438 43.3881 143.139C43.3881 145.571 42.6355 147.48 41.305 148.824L33.8329 130.809C31.051 131.205 28.5648 132.26 26.6699 133.886C23.9216 136.251 22.4702 139.759 22.4702 144.019C22.4702 151.767 28.1885 157.606 35.7346 157.606C43.4755 157.606 48.9989 151.753 48.9989 143.24C48.9989 138.469 46.7411 133.597 44.1004 131.313L40.6667 135.774ZM30.6277 149.314C29.015 148.111 28.0743 146.203 28.0743 143.892C28.0743 141.352 29.5257 139.43 31.6625 138.429L36.7694 150.739C34.1488 151.081 32.0993 150.409 30.6277 149.314Z" fill="white"/>
<path d="M42.0845 158.285V174.298H15.2266V181.434H48.5554V158.285H42.0845Z" fill="white"/>
<path d="M48.9922 31.6754C48.9922 39.3826 43.2537 45.4168 35.7346 45.4168C28.296 45.4168 22.4702 39.3356 22.4702 31.5813C22.4702 23.874 28.2087 17.8398 35.7346 17.8398C43.1664 17.8398 48.9922 23.9143 48.9922 31.6754ZM28.5043 31.6754C28.5043 35.613 31.4878 38.4688 35.7278 38.4688C39.7797 38.4688 42.9513 35.445 42.9513 31.5813C42.9513 27.6436 39.8872 24.7878 35.7278 24.7878C31.676 24.7878 28.5043 27.8116 28.5043 31.6754Z" fill="white"/>
<path d="M48.9922 85.9156C48.9922 93.6229 43.2537 99.657 35.7346 99.657C28.296 99.657 22.4702 93.5759 22.4702 85.8215C22.4702 78.1142 28.2087 72.0801 35.7346 72.0801C43.1664 72.0801 48.9922 78.1613 48.9922 85.9156ZM28.5043 85.9156C28.5043 89.8532 31.4878 92.709 35.7278 92.709C39.7797 92.709 42.9513 89.6852 42.9513 85.8215C42.9513 81.8839 39.8872 79.0281 35.7278 79.0281C31.676 79.0348 28.5043 82.0586 28.5043 85.9156Z" fill="white"/>
</g>
<defs>
<clipPath id="clip0">
<rect width="66.6644" height="200" fill="white"/>
</clipPath>
</defs>
</svg>
