<svg width="166" height="40" viewBox="0 0 166 40" fill="none" xmlns="http://www.w3.org/2000/svg">
<path d="M118.054 16.385H113.049V20.94H118.054V16.385Z" fill="white"/>
<path d="M62.557 23.991L62.381 39.459H67.63V16.709H60.432L55.897 32.151H55.834L51.24 16.709H44.074V39.459H49.321L49.144 23.993L53.966 39.459H57.737L62.557 23.991Z" fill="white"/>
<path d="M118.054 22.719H113.049V39.459H118.054V22.719Z" fill="white"/>
<path d="M78.2831 39.7539C80.7671 39.9229 83.813 39.2029 85.711 37.4039L83.471 34.2829C81.748 36.2379 75.3431 36.7829 74.6671 32.4799L86.7521 32.4719C87.4551 25.3289 83.2321 22.0089 78.9041 21.8009C77.2981 21.7209 75.5271 22.1039 74.1331 22.8999C71.5711 24.3639 69.866 27.2229 69.901 31.1889C69.945 36.2109 73.7741 39.4449 78.2831 39.7539ZM82.1201 28.9489C79.8351 28.9619 77.0231 29.0019 74.7401 28.9169C75.6141 24.9649 81.7371 25.1309 82.1201 28.9489Z" fill="white"/>
<path d="M164.141 23.865C162.786 22.418 160.912 22.176 159.741 22.176C157.177 22.176 155.487 23.504 154.429 25.163C153.071 22.69 151.112 22.176 149.604 22.176C146.467 22.176 145.383 23.834 144.991 24.53H144.929V24.497L144.551 22.72H140.257V39.457H145.261V30.594C145.261 29.597 145.292 26.883 148.098 26.883C150.601 26.883 150.601 29.507 150.601 30.381V39.457H155.609V30.351C155.609 29.414 155.609 26.883 158.384 26.883C160.913 26.883 160.945 29.235 160.945 30.594V39.457H165.955V30.351C165.953 26.609 165.682 25.555 164.141 23.865Z" fill="white"/>
<path d="M131.842 31.918C131.842 34.572 130.426 35.326 128.977 35.326C126.293 35.326 126.293 33.125 126.293 31.98V22.72H121.283V32.732C121.283 35.054 121.436 36.23 122.793 37.889C124.272 39.761 126.686 39.999 127.709 39.999C128.977 39.999 131.029 39.819 132.053 37.679H132.113V37.728L132.124 37.708L132.495 39.458H136.852V22.72H131.842V31.918Z" fill="white"/>
<path d="M110.462 27.2869V22.6379C107.846 22.6909 106.092 23.1789 105.311 24.4999H105.25V24.4909L105.236 24.5119L104.853 22.7209H100.544V39.459H105.552V31.0719C105.443 28.0539 108.299 27.1229 110.462 27.2869Z" fill="white"/>
<path d="M95.6021 16.864H90.5941V22.719H87.7991V26.941H90.5941V39.457H95.6021V26.941H98.3361V22.719H95.6021V16.864Z" fill="white"/>
<path d="M13.9771 39.545H21.813V13.335L13.9771 15.348V39.545Z" fill="white"/>
<path d="M21.813 3.642V13.22L29.535 15.235V39.544H35.897V0L21.813 3.642Z" fill="white"/>
<path d="M7.72095 39.544H8.87994V2.32498L7.72095 2.00098V39.544Z" fill="white"/>
<path d="M0 39.545H1.159V0.302002L0 0V39.545Z" fill="white"/>
<path d="M2.56299 39.5439H3.74799V0.976898L2.56299 0.649902V39.5439Z" fill="white"/>
<path d="M5.14697 39.544H6.31598V1.64999L5.14697 1.323V39.544Z" fill="white"/>
<path d="M10.298 39.5451H11.476V2.99805L10.298 2.67505V39.5451Z" fill="white"/>
<path d="M12.814 39.5449H13.977V3.64792L12.814 3.3479V39.5449Z" fill="white"/>
</svg>
