<svg width="200" height="66" viewBox="0 0 200 66" fill="none" xmlns="http://www.w3.org/2000/svg">
<g clip-path="url(#clip0)">
<path d="M200 66L200 0L0 -8.74228e-06L-2.88495e-06 66L200 66Z" fill="#E32726"/>
<path d="M87.1321 22.2461C84.1755 22.2461 80.8157 23.6032 78.7663 26.3175L78.7663 26.3108L78.7663 22.6719L71.7175 22.6719L71.7175 48.0713L78.7596 48.0713L78.7596 33.622C78.7596 31.0208 80.7956 28.2534 84.5652 28.2534C87.4815 28.2534 90.4986 30.2624 90.4986 33.622L90.4986 48.078L97.5474 48.078L97.5474 32.3247C97.5541 26.4838 93.3342 22.2461 87.1321 22.2461Z" fill="white"/>
<path d="M147.628 22.6719L141.258 39.9752L134.888 22.6719L126.845 22.6719L137.401 48.0647L145.115 48.0647L155.678 22.6719L147.628 22.6719Z" fill="white"/>
<path d="M64.2252 40.2612C61.2619 42.4299 59.5618 42.9555 56.8606 42.9555C54.4281 42.9555 52.5198 42.2104 51.1759 40.8932L69.1909 33.4956C68.7945 30.7414 67.7395 28.28 66.1134 26.4039C63.7481 23.683 60.2405 22.2461 55.9803 22.2461C48.2327 22.2461 42.3934 27.9074 42.3934 35.3782C42.3934 43.042 48.2462 48.5104 56.7598 48.5104C61.5307 48.5104 66.4023 46.2751 68.687 43.6607L64.2252 40.2612ZM50.6853 30.3223C51.8881 28.7257 53.7965 27.7943 56.108 27.7943C58.648 27.7943 60.5698 29.2313 61.571 31.3468L49.2608 36.4027C48.9181 33.8082 49.5901 31.7792 50.6853 30.3223Z" fill="white"/>
<path d="M41.7148 41.6645L25.7022 41.6645L25.7022 15.0742L18.5661 15.0742L18.5661 48.0709L41.7148 48.0709L41.7148 41.6645Z" fill="white"/>
<path d="M168.324 48.5037C160.617 48.5037 154.583 42.8224 154.583 35.3782C154.583 28.0139 160.664 22.2461 168.418 22.2461C176.126 22.2461 182.16 27.9274 182.16 35.3782C182.16 42.736 176.085 48.5037 168.324 48.5037ZM168.324 28.2201C164.387 28.2201 161.531 31.1738 161.531 35.3716C161.531 39.3831 164.555 42.5231 168.418 42.5231C172.356 42.5231 175.212 39.4895 175.212 35.3716C175.212 31.3601 172.188 28.2201 168.324 28.2201Z" fill="white"/>
<path d="M114.084 48.5037C106.377 48.5037 100.342 42.8224 100.342 35.3782C100.342 28.0139 106.424 22.2461 114.178 22.2461C121.885 22.2461 127.919 27.9274 127.919 35.3782C127.919 42.736 121.838 48.5037 114.084 48.5037ZM114.084 28.2201C110.146 28.2201 107.29 31.1738 107.29 35.3716C107.29 39.3831 110.314 42.5231 114.178 42.5231C118.116 42.5231 120.971 39.4895 120.971 35.3716C120.965 31.3601 117.941 28.2201 114.084 28.2201Z" fill="white"/>
</g>
<defs>
<clipPath id="clip0">
<rect x="200" width="66" height="200" transform="rotate(90 200 0)" fill="white"/>
</clipPath>
</defs>
</svg>
