<svg width="74" height="74" viewBox="0 0 74 74" fill="none" xmlns="http://www.w3.org/2000/svg">
<circle cx="37" cy="37.0003" r="2" transform="rotate(45 37 37.0003)" fill="#4A5561"/>
<circle cx="3.05908" cy="37.0003" r="2" transform="rotate(45 3.05908 37.0003)" fill="#414B55"/>
<circle cx="37" cy="3.0589" r="2" transform="rotate(45 37 3.0589)" fill="#414B55"/>
<circle cx="37" cy="70.9417" r="2" transform="rotate(45 37 70.9417)" fill="#414B55"/>
<circle cx="70.9414" cy="37.0003" r="2" transform="rotate(45 70.9414 37.0003)" fill="#414B55"/>
<circle cx="70.9414" cy="3.0589" r="2" transform="rotate(45 70.9414 3.0589)" fill="#39454F"/>
<circle cx="53.9707" cy="53.971" r="2" transform="rotate(45 53.9707 53.971)" fill="#39454F"/>
<circle cx="20.0298" cy="20.0296" r="2" transform="rotate(45 20.0298 20.0296)" fill="#39454F"/>
<circle cx="53.9707" cy="20.0296" r="2" transform="rotate(45 53.9707 20.0296)" fill="#39454F"/>
<circle cx="20.0298" cy="53.971" r="2" transform="rotate(45 20.0298 53.971)" fill="#39454F"/>
<circle cx="3.05908" cy="70.9417" r="2" transform="rotate(45 3.05908 70.9417)" fill="#39454F"/>
<circle cx="70.9414" cy="70.9417" r="2" transform="rotate(45 70.9414 70.9417)" fill="#39454F"/>
<circle cx="3.05908" cy="3.0589" r="2" transform="rotate(45 3.05908 3.0589)" fill="#39454F"/>
</svg>
