<svg width="105" height="36" viewBox="0 0 105 36" fill="none" xmlns="http://www.w3.org/2000/svg"><g clip-path="url(#clip0)"><path d="M105 36V0H0v36h105z" fill="#54626F"/><path d="M45.744 12.133c-1.552 0-3.316.74-4.392 2.22v-1.988h-3.7v13.854h3.697v-7.881c0-1.419 1.069-2.929 3.048-2.929 1.53 0 3.115 1.096 3.115 2.929v7.885h3.7V17.63c.004-3.186-2.212-5.497-5.468-5.497zm31.761.234l-3.345 9.438-3.344-9.438h-4.223l5.542 13.85h4.05l5.546-13.85h-4.226zM33.718 21.96c-1.556 1.182-2.448 1.469-3.866 1.469-1.277 0-2.28-.407-2.985-1.125l9.458-4.035c-.208-1.502-.762-2.845-1.616-3.868-1.241-1.484-3.083-2.268-5.32-2.268-4.067 0-7.133 3.088-7.133 7.163 0 4.18 3.073 7.163 7.543 7.163 2.505 0 5.062-1.22 6.262-2.645l-2.343-1.855zm-7.108-5.422c.631-.87 1.633-1.379 2.847-1.379 1.333 0 2.342.784 2.868 1.938l-6.463 2.758c-.18-1.416.173-2.522.748-3.317zm-4.71 6.188h-8.406V8.223H9.746V26.22H21.9v-3.495zm66.47 3.729c-4.046 0-7.214-3.099-7.214-7.16 0-4.016 3.192-7.162 7.263-7.162 4.047 0 7.215 3.099 7.215 7.163 0 4.013-3.19 7.16-7.264 7.16zm0-11.064c-2.067 0-3.566 1.612-3.566 3.901 0 2.188 1.587 3.901 3.615 3.901 2.068 0 3.567-1.655 3.567-3.9 0-2.189-1.587-3.902-3.616-3.902zM59.894 26.455c-4.046 0-7.214-3.099-7.214-7.16 0-4.016 3.192-7.162 7.264-7.162 4.046 0 7.214 3.099 7.214 7.163 0 4.013-3.193 7.16-7.264 7.16zm0-11.064c-2.067 0-3.566 1.612-3.566 3.901 0 2.188 1.587 3.901 3.615 3.901 2.068 0 3.567-1.655 3.567-3.9-.003-2.189-1.591-3.902-3.616-3.902z" fill="#fff"/></g><defs><clipPath id="clip0"><path transform="rotate(90 105 0)" fill="#fff" d="M105 0h36v105h-36z"/></clipPath></defs></svg>