<svg width="166" height="40" viewBox="0 0 166 40" fill="none" xmlns="http://www.w3.org/2000/svg"><path d="M118.054 16.385h-5.005v4.555h5.005v-4.555zm-55.497 7.606l-.176 15.468h5.249v-22.75h-7.198l-4.535 15.442h-.063L51.24 16.709h-7.166v22.75h5.247l-.177-15.466 4.822 15.466h3.771l4.82-15.468zm55.497-1.272h-5.005v16.74h5.005v-16.74zM78.283 39.754c2.484.169 5.53-.551 7.428-2.35l-2.24-3.121c-1.723 1.955-8.128 2.5-8.804-1.803l12.085-.008c.703-7.143-3.52-10.463-7.848-10.671-1.606-.08-3.377.303-4.77 1.099-2.563 1.464-4.268 4.323-4.233 8.289.044 5.022 3.873 8.256 8.382 8.565zm3.837-10.805c-2.285.013-5.097.053-7.38-.032.874-3.952 6.997-3.786 7.38.032zm82.021-5.084c-1.355-1.447-3.229-1.689-4.4-1.689-2.564 0-4.254 1.328-5.312 2.987-1.358-2.473-3.317-2.987-4.825-2.987-3.137 0-4.221 1.658-4.613 2.354h-.062v-.033l-.378-1.777h-4.294v16.737h5.004v-8.863c0-.997.031-3.711 2.837-3.711 2.503 0 2.503 2.624 2.503 3.498v9.076h5.008v-9.106c0-.937 0-3.468 2.775-3.468 2.529 0 2.561 2.352 2.561 3.711v8.863h5.01v-9.106c-.002-3.742-.273-4.796-1.814-6.486zm-32.299 8.053c0 2.654-1.416 3.408-2.865 3.408-2.684 0-2.684-2.201-2.684-3.346v-9.26h-5.01v10.012c0 2.322.153 3.498 1.51 5.157 1.479 1.872 3.893 2.11 4.916 2.11 1.268 0 3.32-.18 4.344-2.32h.06v.049l.011-.02.371 1.75h4.357V22.72h-5.01v9.198zm-21.38-4.631v-4.65c-2.616.054-4.37.542-5.151 1.863h-.061v-.01l-.014.022-.383-1.791h-4.309v16.738h5.008v-8.387c-.109-3.018 2.747-3.95 4.91-3.785zm-14.86-10.423h-5.008v5.855H87.8v4.222h2.795v12.516h5.008V26.941h2.734v-4.222h-2.734v-5.855zM13.977 39.545h7.836v-26.21l-7.836 2.013v24.197zm7.836-35.903v9.578l7.722 2.015v24.309h6.362V0L21.813 3.642zM7.721 39.544H8.88V2.325l-1.16-.324v37.543zM0 39.545h1.159V.302L0 0v39.545zm2.563-.001h1.185V.977L2.563.65v38.894zm2.584 0h1.169V1.65l-1.169-.327v38.221zm5.151.001h1.178V2.998l-1.178-.323v36.87zm2.516 0h1.163V3.648l-1.163-.3v36.197z" fill="#fff"/></svg>