<svg width="200" height="66" viewBox="0 0 200 66" fill="none" xmlns="http://www.w3.org/2000/svg"><g clip-path="url(#clip0)"><path d="M200 66V0H0v66h200z" fill="#E32726"/><path d="M87.132 22.246c-2.957 0-6.316 1.357-8.366 4.072V22.67h-7.049v25.4h7.043V33.622c0-2.601 2.036-5.369 5.805-5.369 2.916 0 5.934 2.01 5.934 5.369v14.456h7.048V32.325c.007-5.841-4.213-10.079-10.415-10.079zm60.496.426l-6.37 17.303-6.37-17.303h-8.043l10.556 25.393h7.714l10.563-25.393h-8.05zM64.225 40.261c-2.963 2.169-4.663 2.694-7.364 2.694-2.433 0-4.341-.745-5.685-2.062l18.015-7.397c-.397-2.755-1.451-5.216-3.078-7.092-2.365-2.721-5.873-4.158-10.133-4.158-7.747 0-13.587 5.661-13.587 13.132 0 7.664 5.853 13.132 14.367 13.132 4.77 0 9.642-2.235 11.927-4.85l-4.462-3.399zm-13.54-9.939c1.203-1.596 3.111-2.528 5.423-2.528 2.54 0 4.462 1.437 5.463 3.553l-12.31 5.056c-.343-2.595.33-4.624 1.424-6.08zm-8.97 11.342H25.702v-26.59h-7.136v32.997h23.149v-6.407zm126.609 6.84c-7.707 0-13.741-5.682-13.741-13.126 0-7.364 6.081-13.132 13.835-13.132 7.708 0 13.742 5.681 13.742 13.132 0 7.358-6.075 13.126-13.836 13.126zm0-20.284c-3.937 0-6.793 2.954-6.793 7.152 0 4.011 3.024 7.151 6.887 7.151 3.938 0 6.794-3.034 6.794-7.151 0-4.012-3.024-7.152-6.888-7.152zm-54.24 20.284c-7.707 0-13.742-5.682-13.742-13.126 0-7.364 6.082-13.132 13.836-13.132 7.707 0 13.741 5.681 13.741 13.132 0 7.358-6.081 13.126-13.835 13.126zm0-20.284c-3.938 0-6.794 2.954-6.794 7.152 0 4.011 3.024 7.151 6.888 7.151 3.938 0 6.793-3.034 6.793-7.151-.006-4.012-3.03-7.152-6.887-7.152z" fill="#fff"/></g><defs><clipPath id="clip0"><path transform="rotate(90 200 0)" fill="#fff" d="M200 0h66v200h-66z"/></clipPath></defs></svg>