<svg width="67" height="200" viewBox="0 0 67 200" fill="none" xmlns="http://www.w3.org/2000/svg"><g clip-path="url(#clip0)"><path d="M66.664 0H0v200h66.664V0z" fill="#E32726"/><path d="M22.47 112.866c0 2.957 1.371 6.317 4.113 8.366H22.9v7.049h25.655v-7.042H33.961c-2.628 0-5.423-2.036-5.423-5.806 0-2.916 2.03-5.933 5.423-5.933h14.601v-7.049H32.65c-5.9-.007-10.18 4.213-10.18 10.415zm.43-60.494l17.478 6.37-17.478 6.37v8.044l25.65-10.557v-7.714L22.9 44.322v8.05zm17.767 83.402c2.19 2.964 2.721 4.664 2.721 7.365 0 2.432-.752 4.341-2.083 5.685l-7.472-18.015c-2.782.396-5.268 1.451-7.163 3.077-2.748 2.365-4.2 5.873-4.2 10.133 0 7.748 5.719 13.587 13.265 13.587 7.74 0 13.264-5.853 13.264-14.366 0-4.771-2.258-9.643-4.899-11.927l-3.433 4.461zm-10.04 13.54c-1.612-1.203-2.553-3.111-2.553-5.422 0-2.54 1.452-4.462 3.588-5.463l5.107 12.31c-2.62.342-4.67-.33-6.141-1.425zm11.457 8.971v16.013H15.227v7.136h33.328v-23.149h-6.47zm6.908-126.61c0 7.708-5.738 13.742-13.257 13.742-7.439 0-13.265-6.081-13.265-13.836 0-7.707 5.739-13.741 13.265-13.741 7.431 0 13.257 6.074 13.257 13.835zm-20.488 0c0 3.938 2.984 6.794 7.224 6.794 4.052 0 7.223-3.024 7.223-6.888 0-3.937-3.064-6.793-7.223-6.793-4.052 0-7.224 3.024-7.224 6.887zm20.488 54.241c0 7.707-5.738 13.741-13.257 13.741-7.439 0-13.265-6.081-13.265-13.835 0-7.708 5.739-13.742 13.265-13.742 7.431 0 13.257 6.081 13.257 13.836zm-20.488 0c0 3.937 2.984 6.793 7.224 6.793 4.052 0 7.223-3.024 7.223-6.888 0-3.937-3.064-6.793-7.223-6.793-4.052.007-7.224 3.03-7.224 6.888z" fill="#fff"/></g><defs><clipPath id="clip0"><path fill="#fff" d="M0 0h66.664v200H0z"/></clipPath></defs></svg>