<svg width="74" height="74" viewBox="0 0 74 74" fill="none" xmlns="http://www.w3.org/2000/svg"><circle cx="37" cy="37" r="2" transform="rotate(45 37 37)" fill="#4A5561"/><circle cx="3.059" cy="37" r="2" transform="rotate(45 3.06 37)" fill="#414B55"/><circle cx="37" cy="3.059" r="2" transform="rotate(45 37 3.059)" fill="#414B55"/><circle cx="37" cy="70.942" r="2" transform="rotate(45 37 70.942)" fill="#414B55"/><circle cx="70.941" cy="37" r="2" transform="rotate(45 70.941 37)" fill="#414B55"/><circle cx="70.941" cy="3.059" r="2" transform="rotate(45 70.941 3.059)" fill="#39454F"/><circle cx="53.971" cy="53.971" r="2" transform="rotate(45 53.97 53.971)" fill="#39454F"/><circle cx="20.03" cy="20.03" r="2" transform="rotate(45 20.03 20.03)" fill="#39454F"/><circle cx="53.971" cy="20.03" r="2" transform="rotate(45 53.97 20.03)" fill="#39454F"/><circle cx="20.03" cy="53.971" r="2" transform="rotate(45 20.03 53.971)" fill="#39454F"/><circle cx="3.059" cy="70.942" r="2" transform="rotate(45 3.06 70.942)" fill="#39454F"/><circle cx="70.941" cy="70.942" r="2" transform="rotate(45 70.941 70.942)" fill="#39454F"/><circle cx="3.059" cy="3.059" r="2" transform="rotate(45 3.06 3.059)" fill="#39454F"/></svg>