<svg width="25" height="25" viewBox="0 0 25 25" fill="none" xmlns="http://www.w3.org/2000/svg">
<path d="M7.60352 11.4672H9.62976V13.4935H7.60352V11.4672ZM7.60352 15.5197H9.62976V17.546H7.60352V15.5197ZM11.656 11.4672H13.6823V13.4935H11.656V11.4672ZM11.656 15.5197H13.6823V17.546H11.656V15.5197ZM15.7085 11.4672H17.7347V13.4935H15.7085V11.4672ZM15.7085 15.5197H17.7347V17.546H15.7085V15.5197Z" fill="#FDA1C6"/>
<path d="M5.57703 22.6116H19.7608C20.8782 22.6116 21.787 21.7028 21.787 20.5853V6.40158C21.787 5.28411 20.8782 4.37534 19.7608 4.37534H17.7345V2.34909H15.7083V4.37534H9.62952V2.34909H7.60327V4.37534H5.57703C4.45955 4.37534 3.55078 5.28411 3.55078 6.40158V20.5853C3.55078 21.7028 4.45955 22.6116 5.57703 22.6116ZM19.7608 8.42783L19.7618 20.5853H5.57703V8.42783H19.7608Z" fill="#FDA1C6"/>
</svg>
