<svg width="13" height="12" viewBox="0 0 13 12" fill="none" xmlns="http://www.w3.org/2000/svg">
<path d="M6.5 0C2.925 0 0 2.38667 0 5.33333C0.0163205 6.0418 0.185007 6.73782 0.494007 7.37166C0.803007 8.00551 1.24469 8.56153 1.7875 9C1.7875 9.4 1.5145 10.4467 0 12C1.5405 11.9267 3.016 11.3333 4.2055 10.3333C4.9465 10.5533 5.7265 10.6667 6.5 10.6667C10.075 10.6667 13 8.28 13 5.33333C13 2.38667 10.075 0 6.5 0ZM6.5 9.33333C3.627 9.33333 1.3 7.54 1.3 5.33333C1.3 3.12667 3.627 1.33333 6.5 1.33333C9.373 1.33333 11.7 3.12667 11.7 5.33333C11.7 7.54 9.373 9.33333 6.5 9.33333Z" fill="#5F6776"/>
</svg>
