<svg width="8" height="14" viewBox="0 0 8 14" fill="none" xmlns="http://www.w3.org/2000/svg">
<path d="M6.99948 0.716971L5.36927 0.714355C3.53778 0.714355 2.35418 1.92869 2.35418 3.8082V5.23467H0.715076C0.573437 5.23467 0.45874 5.3495 0.45874 5.49114V7.55793C0.45874 7.69957 0.573568 7.81427 0.715076 7.81427H2.35418V13.0294C2.35418 13.1711 2.46888 13.2858 2.61052 13.2858H4.74909C4.89073 13.2858 5.00543 13.171 5.00543 13.0294V7.81427H6.92193C7.06357 7.81427 7.17826 7.69957 7.17826 7.55793L7.17905 5.49114C7.17905 5.42313 7.15198 5.358 7.10398 5.30987C7.05598 5.26174 6.99059 5.23467 6.92258 5.23467H5.00543V4.02543C5.00543 3.44423 5.14393 3.14918 5.90103 3.14918L6.99922 3.14878C7.14073 3.14878 7.25543 3.03395 7.25543 2.89245V0.973309C7.25543 0.831931 7.14086 0.717233 6.99948 0.716971Z" fill="white"/>
</svg>
