<svg width="24" height="24" viewBox="0 0 24 24" fill="none" xmlns="http://www.w3.org/2000/svg">
<path d="M16.746 0C14.932 0 9.064 0 7.25 0C3.248 0 0 3.241 0 7.24C0 9.063 0 14.936 0 16.76C0 20.764 3.248 24 7.25 24C9.064 24 14.932 24 16.746 24C20.75 24 24 20.764 24 16.76C24 14.937 24 9.064 24 7.24C24 3.241 20.75 0 16.746 0ZM21.611 16.797C21.611 19.451 19.457 21.599 16.807 21.599H7.193C4.541 21.599 2.387 19.452 2.387 16.797V7.203C2.387 4.555 4.541 2.405 7.193 2.405H16.807C19.456 2.405 21.611 4.554 21.611 7.203V16.797Z" fill="white"/>
<path d="M18.284 7.13588C19.0335 7.13588 19.641 6.52833 19.641 5.77888C19.641 5.02943 19.0335 4.42188 18.284 4.42188C17.5346 4.42188 16.927 5.02943 16.927 5.77888C16.927 6.52833 17.5346 7.13588 18.284 7.13588Z" fill="white"/>
<path d="M12 5.89502C8.62203 5.89502 5.88403 8.62802 5.88403 12C5.88403 15.378 8.62103 18.109 12 18.109C15.375 18.109 18.116 15.378 18.116 12C18.115 8.62902 15.375 5.89502 12 5.89502ZM12 15.705C9.95303 15.705 8.29103 14.047 8.29103 12.001C8.29103 9.95101 9.95403 8.30102 12 8.30102C14.049 8.30102 15.707 9.95101 15.707 12.001C15.706 14.047 14.049 15.705 12 15.705Z" fill="white"/>
</svg>
