<svg width="23" height="23" viewBox="0 0 23 23" fill="none" xmlns="http://www.w3.org/2000/svg">
<path fill-rule="evenodd" clip-rule="evenodd" d="M12.726 2C8.58382 2 5.22595 5.35786 5.22595 9.5C5.22595 13.6421 8.58382 17 12.726 17C16.8681 17 20.226 13.6421 20.226 9.5C20.226 5.35786 16.8681 2 12.726 2ZM3.22595 9.5C3.22595 4.25329 7.47925 0 12.726 0C17.9727 0 22.226 4.25329 22.226 9.5C22.226 14.7467 17.9727 19 12.726 19C7.47925 19 3.22595 14.7467 3.22595 9.5Z" fill="white"/>
<path fill-rule="evenodd" clip-rule="evenodd" d="M0.292969 20.6157L6.02396 14.8867L7.43793 16.3012L1.70694 22.0302L0.292969 20.6157Z" fill="white"/>
</svg>
